<svg width="13" height="11" viewBox="0 0 13 11" fill="none" xmlns="http://www.w3.org/2000/svg">
<path fill-rule="evenodd" clip-rule="evenodd" d="M10.037 0H0V8.26157H2.28114V10.0975H12.3182V1.8359L10.037 1.8359V0ZM9.12458 1.8359V0.917952H0.912458V7.34362H2.28114V1.8359L9.12458 1.8359ZM3.19359 7.58661V9.17952H11.4057V2.75385H9.72681H3.19359V7.58661ZM7.55335 4.3616L8.14911 4.99686L8.77045 4.33432L10.037 5.68487V7.80257H5.01851V6.23668V5.68487L6.90643 3.67178L7.55335 4.3616ZM5.68764 5.94505V7.14003H9.36789V5.94505L8.77045 5.30799L8.14911 5.97053L7.01423 4.76041L6.90643 4.64546L6.31027 5.28114L5.68764 5.94505Z" fill="black"/>
</svg>
