<svg width="26" height="26" viewBox="0 0 26 26" fill="none" xmlns="http://www.w3.org/2000/svg">
<path d="M25.075 0.944144C24.7169 0.585243 24.2307 0.383547 23.7238 0.383547C23.2168 0.383547 22.7306 0.585243 22.3725 0.944144L13 10.2975L3.6275 0.924977C3.26941 0.566076 2.78325 0.36438 2.27625 0.36438C1.76926 0.36438 1.2831 0.566076 0.925005 0.924977C0.177505 1.67248 0.177505 2.87998 0.925005 3.62748L10.2975 13L0.925005 22.3725C0.177505 23.12 0.177505 24.3275 0.925005 25.075C1.6725 25.8225 2.88 25.8225 3.6275 25.075L13 15.7025L22.3725 25.075C23.12 25.8225 24.3275 25.8225 25.075 25.075C25.8225 24.3275 25.8225 23.12 25.075 22.3725L15.7025 13L25.075 3.62748C25.8033 2.89914 25.8033 1.67248 25.075 0.944144Z" fill="#6D7D8B"/>
</svg>
