<svg width="24" height="24" viewBox="0 0 24 24" fill="none" xmlns="http://www.w3.org/2000/svg">
<g clip-path="url(#clip0_2008_194)">
<path fill-rule="evenodd" clip-rule="evenodd" d="M22 0.81958V18C22 18.9907 21.3977 19.7652 20.676 20.2463C20.3045 20.494 19.8758 20.685 19.4124 20.8128L17.5494 18.9711C17.6927 18.9899 17.8433 19 18 19C18.6585 19 19.2095 18.8203 19.5666 18.5822C19.9307 18.3395 20 18.1139 20 18C20 17.8861 19.9307 17.6606 19.5666 17.4179C19.2095 17.1798 18.6585 17 18 17C17.3415 17 16.7905 17.1798 16.4334 17.4179C16.3324 17.4852 16.2541 17.5512 16.1937 17.6138L14.7838 16.1972C14.9495 16.0297 15.1325 15.8814 15.324 15.7538C16.0526 15.268 17.0017 15 18 15C18.7125 15 19.3999 15.1365 20 15.3913V8.1805L10 9.84717V11L8 9V3.15291L22 0.81958ZM14.0469 17.5282C14.0164 17.6794 14 17.8368 14 18C14 18.9907 14.6023 19.7652 15.324 20.2463C15.942 20.6583 16.7186 20.9137 17.5494 20.9817L14.0469 17.5282ZM8 17.3913V11.5L10 13.5V20C10 20.9907 9.3977 21.7652 8.67602 22.2463C7.94735 22.7321 6.99832 23 6 23C5.00168 23 4.05265 22.7321 3.32398 22.2463C2.6023 21.7652 2 20.9907 2 20C2 19.0094 2.6023 18.2349 3.32398 17.7538C4.05265 17.268 5.00168 17 6 17C6.7125 17 7.3999 17.1365 8 17.3913ZM8 20C8 19.8861 7.93073 19.6606 7.56662 19.4179C7.2095 19.1798 6.65854 19 6 19C5.34146 19 4.7905 19.1798 4.43338 19.4179C4.06927 19.6606 4 19.8861 4 20C4 20.1139 4.06927 20.3395 4.43338 20.5822C4.7905 20.8203 5.34146 21 6 21C6.65854 21 7.2095 20.8203 7.56662 20.5822C7.93073 20.3395 8 20.1139 8 20ZM10 7.81958L20 6.15291V3.1805L10 4.84717V7.81958Z" fill="black"/>
<path d="M1.5 1.5L22.5 22.5" stroke="black" stroke-width="2"/>
</g>
<defs>
<clipPath id="clip0_2008_194">
<rect width="24" height="24" fill="white"/>
</clipPath>
</defs>
</svg>
