<svg width="12" height="12" viewBox="0 0 12 12" fill="none" xmlns="http://www.w3.org/2000/svg">
<path fill-rule="evenodd" clip-rule="evenodd" d="M3.5 3C3.5 1.61929 4.61929 0.5 6 0.5C7.38071 0.5 8.5 1.61929 8.5 3C8.5 4.38071 7.38071 5.5 6 5.5C4.61929 5.5 3.5 4.38071 3.5 3ZM6 1.5C5.17157 1.5 4.5 2.17157 4.5 3C4.5 3.82843 5.17157 4.5 6 4.5C6.82843 4.5 7.5 3.82843 7.5 3C7.5 2.17157 6.82843 1.5 6 1.5Z" fill="black"/>
<path d="M2.03095 10.5C2.277 8.52684 3.96019 7 6 7C6.44761 7 6.87707 7.07333 7.27763 7.20824L7.75148 7.36783L8.07066 6.42014L7.59682 6.26055C7.09474 6.09145 6.55754 6 6 6C3.23858 6 1 8.23858 1 11V11.5H5.5V10.5H2.03095Z" fill="black"/>
<path fill-rule="evenodd" clip-rule="evenodd" d="M10 6.29289L11.7071 8L8.20711 11.5H6.5V9.79289L10 6.29289ZM7.5 10.2071V10.5H7.79289L10.2929 8L10 7.70711L7.5 10.2071Z" fill="black"/>
</svg>
