<svg width="15" height="16" viewBox="0 0 15 16" fill="none" xmlns="http://www.w3.org/2000/svg">
<path fill-rule="evenodd" clip-rule="evenodd" d="M15 0V12.3932C15 13.1078 14.5483 13.6665 14.007 14.0136C13.4605 14.364 12.7487 14.5573 12 14.5573C11.2513 14.5573 10.5395 14.364 9.99298 14.0136C9.45173 13.6665 9 13.1078 9 12.3932C9 11.6786 9.45173 11.1199 9.99298 10.7729C10.5395 10.4224 11.2513 10.2292 12 10.2292C12.5344 10.2292 13.0499 10.3276 13.5 10.5114V5.30984L6 6.5121V13.8359C6 14.5506 5.54827 15.1092 5.00702 15.4563C4.46052 15.8067 3.74874 16 3 16C2.25126 16 1.53948 15.8067 0.992985 15.4563C0.451727 15.1092 0 14.5506 0 13.8359C0 13.1213 0.451727 12.5626 0.992985 12.2156C1.53948 11.8652 2.25126 11.6719 3 11.6719C3.53438 11.6719 4.04992 11.7703 4.5 11.9541V1.68316L15 0ZM4.5 13.8359C4.5 13.7538 4.44805 13.5911 4.17497 13.416C3.90713 13.2442 3.4939 13.1146 3 13.1146C2.5061 13.1146 2.09287 13.2442 1.82503 13.416C1.55195 13.5911 1.5 13.7538 1.5 13.8359C1.5 13.9181 1.55195 14.0808 1.82503 14.2559C2.09287 14.4276 2.5061 14.5573 3 14.5573C3.4939 14.5573 3.90713 14.4276 4.17497 14.2559C4.44805 14.0808 4.5 13.9181 4.5 13.8359ZM6 5.04949L13.5 3.84723V1.70306L6 2.90532V5.04949ZM13.5 12.3932C13.5 12.3111 13.448 12.1484 13.175 11.9733C12.9071 11.8015 12.4939 11.6719 12 11.6719C11.5061 11.6719 11.0929 11.8015 10.825 11.9733C10.552 12.1484 10.5 12.3111 10.5 12.3932C10.5 12.4754 10.552 12.6381 10.825 12.8132C11.0929 12.9849 11.5061 13.1146 12 13.1146C12.4939 13.1146 12.9071 12.9849 13.175 12.8132C13.448 12.6381 13.5 12.4754 13.5 12.3932Z" fill="black"/>
</svg>
